# xmcd
#
# Track frame offsets: 
#        150
#        29410
#        44905
#        65216
#        92011
#        111109
#        135721
#        158236
#        176753
#        201866
#        232480
#        254295
#
# Disc length: 3585 seconds
#
# Revision: 1
# Processed by: cddbd v1.5.2PL0 Copyright (c) Steve Scherf et al.
# Submitted via: ExactAudioCopy v1.0b3
#
DISCID=ba0dff0c
DTITLE=Grinderman - Grinderman 2 RMX
DYEAR=2012
DGENRE=Rock
TTITLE0=Grinderman and Robert Fripp - Super Heathen Child
TTITLE1=A Place To Bury Strangers - Worm Tamer [remix]
TTITLE2=Nick Zinner - Bellringer Blues [remix]
TTITLE3=Grinderman and UNKLE - Hyper Worm Tamer
TTITLE4=Joshua Homme - Mickey Bloody Mouse [remix]
TTITLE5=Cat's Eyes w. Luke Tristram - When My Baby Comes
TTITLE6=Barry Adamson - Palaces of Montezuma [remix]
TTITLE7=Silver Alert f. Matt Berninger - Evil [remix]
TTITLE8=Sixtoes - When My Baby Comes [remix]
TTITLE9=Andrew Weatherall - Heathen Child [remix]
TTITLE10=Factory Floor - Evil ['Michael Cliffe House' remix]
TTITLE11=First Evil
EXTD=
EXTT0=
EXTT1=
EXTT2=
EXTT3=
EXTT4=
EXTT5=
EXTT6=
EXTT7=
EXTT8=
EXTT9=
EXTT10=
EXTT11=
PLAYORDER=
